<svg width="3685" height="1345" viewBox="0 0 3685 1345" fill="none" xmlns="http://www.w3.org/2000/svg">
<path d="M1097.5 272.877L1490.51 499.783C1501.34 506.035 1508.01 517.59 1508.01 530.094V983.906C1508.01 996.41 1501.34 1007.96 1490.51 1014.22L1097.5 1241.12C1086.67 1247.38 1073.33 1247.38 1062.5 1241.12L669.487 1014.22C658.658 1007.96 651.987 996.41 651.987 983.906V530.094C651.987 517.59 658.658 506.035 669.487 499.783L1062.5 272.877C1073.33 266.625 1086.67 266.625 1097.5 272.877Z" stroke="url(#paint0_linear_412_102)" stroke-width="10"/>
<path d="M1097.5 272.877L1490.51 499.783C1501.34 506.035 1508.01 517.59 1508.01 530.094V983.906C1508.01 996.41 1501.34 1007.96 1490.51 1014.22L1097.5 1241.12C1086.67 1247.38 1073.33 1247.38 1062.5 1241.12L669.487 1014.22C658.658 1007.96 651.987 996.41 651.987 983.906V530.094C651.987 517.59 658.658 506.035 669.487 499.783L1062.5 272.877C1073.33 266.625 1086.67 266.625 1097.5 272.877Z" stroke="url(#paint1_linear_412_102)" stroke-opacity="0.6" stroke-width="10"/>
<path d="M1194.3 1012.02L946.482 944.07V470.799L928.686 470.644C888.181 470.289 855.132 502.981 855.047 543.488L854.184 955.945C854.085 1003.15 894.67 1040.18 941.669 1035.76L1194.3 1012.02Z" fill="url(#paint2_linear_412_102)"/>
<path d="M1194.3 1012.02L946.482 944.07V470.799L928.686 470.644C888.181 470.289 855.132 502.981 855.047 543.488L854.184 955.945C854.085 1003.15 894.67 1040.18 941.669 1035.76L1194.3 1012.02Z" fill="url(#paint3_linear_412_102)" fill-opacity="0.04"/>
<path d="M1215.52 898.901L968.902 922.085L1215.52 990.038H1238C1275.56 990.038 1306 959.593 1306 922.038V540.199C1306 502.092 1275.11 471.199 1237 471.199H1215.52V898.901Z" fill="url(#paint4_linear_412_102)"/>
<path d="M1215.52 898.901L968.902 922.085L1215.52 990.038H1238C1275.56 990.038 1306 959.593 1306 922.038V540.199C1306 502.092 1275.11 471.199 1237 471.199H1215.52V898.901Z" fill="url(#paint5_linear_412_102)" fill-opacity="0.04"/>
<path d="M1630 984V498H1698L1705 568H1708C1731.33 544.667 1756 525.333 1782 510C1808 494 1837.67 486 1871 486C1922.33 486 1959.67 502.333 1983 535C2007 567 2019 614 2019 676V984H1937V687C1937 641.667 1929.67 608.667 1915 588C1900.33 567.333 1877 557 1845 557C1820.33 557 1798 563.333 1778 576C1758.67 588.667 1736.67 607.333 1712 632V984H1630ZM2391.88 996C2369.21 996 2345.54 990.667 2320.88 980C2296.88 968.667 2274.21 953.333 2252.88 934H2249.88L2242.88 984H2176.88V272H2258.88V466L2256.88 554C2278.88 534.667 2302.88 518.667 2328.88 506C2355.54 492.667 2382.21 486 2408.88 486C2472.21 486 2520.21 508.333 2552.88 553C2585.54 597.667 2601.88 657.667 2601.88 733C2601.88 788.333 2591.88 835.667 2571.88 875C2552.54 914.333 2526.88 944.333 2494.88 965C2463.54 985.667 2429.21 996 2391.88 996ZM2377.88 927C2417.88 927 2450.88 910 2476.88 876C2503.54 841.333 2516.88 794 2516.88 734C2516.88 680.667 2506.88 637.667 2486.88 605C2467.54 571.667 2434.88 555 2388.87 555C2368.21 555 2347.21 560.667 2325.88 572C2304.54 583.333 2282.21 599.667 2258.88 621V876C2280.21 894.667 2301.21 908 2321.88 916C2343.21 923.333 2361.88 927 2377.88 927ZM2827.94 996C2787.27 996 2753.27 984 2725.94 960C2699.27 935.333 2685.94 901.333 2685.94 858C2685.94 804.667 2709.6 764 2756.94 736C2804.94 707.333 2880.6 687.333 2983.94 676C2983.94 655.333 2980.94 635.667 2974.94 617C2969.6 598.333 2959.6 583.333 2944.94 572C2930.94 560 2910.6 554 2883.94 554C2855.94 554 2829.6 559.333 2804.94 570C2780.27 580.667 2758.27 592.667 2738.94 606L2706.94 549C2729.6 534.333 2757.27 520.333 2789.94 507C2823.27 493 2859.27 486 2897.94 486C2957.27 486 3000.27 504.333 3026.94 541C3053.6 577 3066.94 625.333 3066.94 686V984H2998.94L2991.94 926H2988.94C2966.27 944.667 2941.27 961 2913.94 975C2887.27 989 2858.6 996 2827.94 996ZM2851.94 930C2875.27 930 2897.27 924.333 2917.94 913C2938.6 901.667 2960.6 885.667 2983.94 865V730C2903.27 740 2846.6 755 2813.94 775C2781.94 795 2765.94 820.667 2765.94 852C2765.94 879.333 2774.27 899.333 2790.94 912C2807.6 924 2827.94 930 2851.94 930ZM3219.84 984V498H3287.84L3294.84 568H3297.84C3321.18 544.667 3345.84 525.333 3371.84 510C3397.84 494 3427.51 486 3460.84 486C3512.18 486 3549.51 502.333 3572.84 535C3596.84 567 3608.84 614 3608.84 676V984H3526.84V687C3526.84 641.667 3519.51 608.667 3504.84 588C3490.18 567.333 3466.84 557 3434.84 557C3410.18 557 3387.84 563.333 3367.84 576C3348.51 588.667 3326.51 607.333 3301.84 632V984H3219.84Z" fill="url(#paint6_linear_412_102)"/>
<path d="M90 1072V416H173V745H176L449 416H543L338 666L575 1072H482L286 731L173 864V1072H90Z" fill="url(#paint7_linear_412_102)"/>
<defs>
<linearGradient id="paint0_linear_412_102" x1="860.5" y1="355" x2="1482" y2="1084" gradientUnits="userSpaceOnUse">
<stop stop-color="#00DC82"/>
<stop offset="0.968833" stop-color="#00DC82" stop-opacity="0"/>
</linearGradient>
<linearGradient id="paint1_linear_412_102" x1="1359" y1="329" x2="1055.5" y2="1032" gradientUnits="userSpaceOnUse">
<stop stop-color="#1FFDC8"/>
<stop offset="1" stop-color="#1FFDC8" stop-opacity="0"/>
</linearGradient>
<linearGradient id="paint2_linear_412_102" x1="923" y1="499.5" x2="1162.5" y2="1005" gradientUnits="userSpaceOnUse">
<stop stop-color="#00DC82"/>
<stop offset="1" stop-color="#00DC82" stop-opacity="0"/>
</linearGradient>
<linearGradient id="paint3_linear_412_102" x1="1266" y1="496.5" x2="1096" y2="812" gradientUnits="userSpaceOnUse">
<stop stop-color="#1FFDC8"/>
<stop offset="1" stop-color="#1FFDC8" stop-opacity="0"/>
</linearGradient>
<linearGradient id="paint4_linear_412_102" x1="923" y1="499.5" x2="1162.5" y2="1005" gradientUnits="userSpaceOnUse">
<stop stop-color="#00DC82"/>
<stop offset="1" stop-color="#00DC82" stop-opacity="0"/>
</linearGradient>
<linearGradient id="paint5_linear_412_102" x1="1266" y1="496.5" x2="1096" y2="812" gradientUnits="userSpaceOnUse">
<stop stop-color="#1FFDC8"/>
<stop offset="1" stop-color="#1FFDC8" stop-opacity="0"/>
</linearGradient>
<linearGradient id="paint6_linear_412_102" x1="2616.5" y1="-4.30534e-05" x2="3403.08" y2="1163.56" gradientUnits="userSpaceOnUse">
<stop stop-color="#07DE86"/>
<stop offset="1" stop-color="#07DE86" stop-opacity="0"/>
</linearGradient>
<linearGradient id="paint7_linear_412_102" x1="120.5" y1="392.5" x2="517.5" y2="1207" gradientUnits="userSpaceOnUse">
<stop stop-color="#1FFDC8"/>
<stop offset="1" stop-color="#1FFDC8" stop-opacity="0"/>
</linearGradient>
</defs>
</svg>
